<mxfile host="app.diagrams.net" agent="Mozilla/5.0 (Windows NT 10.0; Win64; x64) AppleWebKit/537.36 (KHTML, like Gecko) Chrome/134.0.0.0 Safari/537.36" version="26.1.0">
  <diagram name="Страница — 1" id="5FaUrOJebSl_zGhpIJmT">
    <mxGraphModel dx="2022" dy="1791" grid="1" gridSize="10" guides="1" tooltips="1" connect="1" arrows="1" fold="1" page="1" pageScale="1" pageWidth="827" pageHeight="1169" math="0" shadow="0">
      <root>
        <mxCell id="0" />
        <mxCell id="1" parent="0" />
        <mxCell id="4kl3okm59KW2ScU52pFa-1" value="Работник" style="shape=umlActor;verticalLabelPosition=bottom;verticalAlign=top;html=1;outlineConnect=0;" vertex="1" parent="1">
          <mxGeometry x="117.5" y="140" width="30" height="60" as="geometry" />
        </mxCell>
        <mxCell id="4kl3okm59KW2ScU52pFa-2" value="Админ" style="shape=umlActor;verticalLabelPosition=bottom;verticalAlign=top;html=1;outlineConnect=0;" vertex="1" parent="1">
          <mxGeometry x="530" y="230" width="30" height="60" as="geometry" />
        </mxCell>
        <mxCell id="4kl3okm59KW2ScU52pFa-4" value="Менеджер" style="shape=umlActor;verticalLabelPosition=bottom;verticalAlign=top;html=1;outlineConnect=0;" vertex="1" parent="1">
          <mxGeometry x="690" y="70" width="30" height="60" as="geometry" />
        </mxCell>
        <mxCell id="4kl3okm59KW2ScU52pFa-9" value="" style="ellipse;whiteSpace=wrap;html=1;verticalAlign=top;fillColor=#dae8fc;strokeColor=#6c8ebf;" vertex="1" parent="1">
          <mxGeometry x="-12.5" y="140" width="92.5" height="30" as="geometry" />
        </mxCell>
        <mxCell id="4kl3okm59KW2ScU52pFa-11" value="Брать задачу" style="text;html=1;align=center;verticalAlign=middle;whiteSpace=wrap;rounded=0;" vertex="1" parent="1">
          <mxGeometry x="3.75" y="140" width="60" height="30" as="geometry" />
        </mxCell>
        <mxCell id="4kl3okm59KW2ScU52pFa-12" value="" style="endArrow=none;html=1;rounded=0;" edge="1" parent="1" source="4kl3okm59KW2ScU52pFa-9" target="4kl3okm59KW2ScU52pFa-1">
          <mxGeometry width="50" height="50" relative="1" as="geometry">
            <mxPoint x="287.5" y="270" as="sourcePoint" />
            <mxPoint x="337.5" y="220" as="targetPoint" />
            <Array as="points">
              <mxPoint x="117.5" y="160" />
            </Array>
          </mxGeometry>
        </mxCell>
        <mxCell id="4kl3okm59KW2ScU52pFa-24" value="" style="ellipse;whiteSpace=wrap;html=1;fillColor=#dae8fc;strokeColor=#6c8ebf;" vertex="1" parent="1">
          <mxGeometry x="690" y="-10" width="100" height="50" as="geometry" />
        </mxCell>
        <mxCell id="4kl3okm59KW2ScU52pFa-26" value="" style="endArrow=block;endSize=16;endFill=0;html=1;rounded=0;" edge="1" parent="1" source="4kl3okm59KW2ScU52pFa-2" target="4kl3okm59KW2ScU52pFa-4">
          <mxGeometry width="160" relative="1" as="geometry">
            <mxPoint x="460" y="250" as="sourcePoint" />
            <mxPoint x="620" y="250" as="targetPoint" />
            <Array as="points">
              <mxPoint x="600" y="160" />
            </Array>
          </mxGeometry>
        </mxCell>
        <mxCell id="4kl3okm59KW2ScU52pFa-28" value="Подтвердить выполнение" style="text;html=1;align=center;verticalAlign=middle;whiteSpace=wrap;rounded=0;" vertex="1" parent="1">
          <mxGeometry x="710" width="60" height="30" as="geometry" />
        </mxCell>
        <mxCell id="4kl3okm59KW2ScU52pFa-29" value="" style="endArrow=none;html=1;rounded=0;exitX=0.5;exitY=0;exitDx=0;exitDy=0;exitPerimeter=0;entryX=0.5;entryY=1;entryDx=0;entryDy=0;" edge="1" parent="1" source="4kl3okm59KW2ScU52pFa-4" target="4kl3okm59KW2ScU52pFa-24">
          <mxGeometry width="50" height="50" relative="1" as="geometry">
            <mxPoint x="590" y="350" as="sourcePoint" />
            <mxPoint x="640" y="300" as="targetPoint" />
          </mxGeometry>
        </mxCell>
        <mxCell id="4kl3okm59KW2ScU52pFa-30" value="" style="endArrow=none;html=1;rounded=0;entryX=0.5;entryY=0;entryDx=0;entryDy=0;entryPerimeter=0;exitX=0.5;exitY=1;exitDx=0;exitDy=0;" edge="1" parent="1" source="4kl3okm59KW2ScU52pFa-31" target="4kl3okm59KW2ScU52pFa-2">
          <mxGeometry width="50" height="50" relative="1" as="geometry">
            <mxPoint x="710" y="230" as="sourcePoint" />
            <mxPoint x="640" y="300" as="targetPoint" />
          </mxGeometry>
        </mxCell>
        <mxCell id="4kl3okm59KW2ScU52pFa-31" value="Добавить сотрудника" style="ellipse;whiteSpace=wrap;html=1;fillColor=#dae8fc;strokeColor=#6c8ebf;" vertex="1" parent="1">
          <mxGeometry x="450" y="155" width="100" height="50" as="geometry" />
        </mxCell>
        <mxCell id="4kl3okm59KW2ScU52pFa-32" value="Удалить задачу" style="ellipse;whiteSpace=wrap;html=1;fillColor=#dae8fc;strokeColor=#6c8ebf;" vertex="1" parent="1">
          <mxGeometry x="630" y="180" width="100" height="50" as="geometry" />
        </mxCell>
        <mxCell id="4kl3okm59KW2ScU52pFa-34" value="" style="endArrow=none;html=1;rounded=0;entryX=0.5;entryY=0;entryDx=0;entryDy=0;" edge="1" parent="1" source="4kl3okm59KW2ScU52pFa-4" target="4kl3okm59KW2ScU52pFa-32">
          <mxGeometry width="50" height="50" relative="1" as="geometry">
            <mxPoint x="730" y="120" as="sourcePoint" />
            <mxPoint x="640" y="300" as="targetPoint" />
          </mxGeometry>
        </mxCell>
        <mxCell id="4kl3okm59KW2ScU52pFa-35" value="Добавить задачу" style="ellipse;whiteSpace=wrap;html=1;fillColor=#dae8fc;strokeColor=#6c8ebf;" vertex="1" parent="1">
          <mxGeometry x="760" y="90" width="100" height="50" as="geometry" />
        </mxCell>
        <mxCell id="4kl3okm59KW2ScU52pFa-36" value="" style="endArrow=none;html=1;rounded=0;entryX=0;entryY=0.5;entryDx=0;entryDy=0;" edge="1" parent="1" target="4kl3okm59KW2ScU52pFa-35" source="4kl3okm59KW2ScU52pFa-4">
          <mxGeometry width="50" height="50" relative="1" as="geometry">
            <mxPoint x="514" y="270" as="sourcePoint" />
            <mxPoint x="584" y="210" as="targetPoint" />
          </mxGeometry>
        </mxCell>
        <mxCell id="4kl3okm59KW2ScU52pFa-37" value="" style="endArrow=none;html=1;rounded=0;exitX=0.5;exitY=0;exitDx=0;exitDy=0;" edge="1" parent="1" source="4kl3okm59KW2ScU52pFa-38" target="4kl3okm59KW2ScU52pFa-2">
          <mxGeometry width="50" height="50" relative="1" as="geometry">
            <mxPoint x="700" y="475" as="sourcePoint" />
            <mxPoint x="725" y="545" as="targetPoint" />
          </mxGeometry>
        </mxCell>
        <mxCell id="4kl3okm59KW2ScU52pFa-38" value="Удалить сотрудника" style="ellipse;whiteSpace=wrap;html=1;fillColor=#dae8fc;strokeColor=#6c8ebf;" vertex="1" parent="1">
          <mxGeometry x="400" y="211" width="100" height="50" as="geometry" />
        </mxCell>
        <mxCell id="4kl3okm59KW2ScU52pFa-39" value="Сд&lt;span style=&quot;background-color: transparent; color: light-dark(rgb(0, 0, 0), rgb(255, 255, 255));&quot;&gt;ать задачу&lt;/span&gt;" style="ellipse;whiteSpace=wrap;html=1;fillColor=#dae8fc;strokeColor=#6c8ebf;" vertex="1" parent="1">
          <mxGeometry x="-20" y="50" width="100" height="50" as="geometry" />
        </mxCell>
        <mxCell id="4kl3okm59KW2ScU52pFa-41" value="Смотреть список задач" style="ellipse;whiteSpace=wrap;html=1;fillColor=#dae8fc;strokeColor=#6c8ebf;" vertex="1" parent="1">
          <mxGeometry x="187.5" y="120" width="100" height="50" as="geometry" />
        </mxCell>
        <mxCell id="4kl3okm59KW2ScU52pFa-42" value="" style="endArrow=none;html=1;rounded=0;exitX=1;exitY=0.3333333333333333;exitDx=0;exitDy=0;exitPerimeter=0;entryX=0;entryY=0.5;entryDx=0;entryDy=0;" edge="1" parent="1" target="4kl3okm59KW2ScU52pFa-41" source="4kl3okm59KW2ScU52pFa-1">
          <mxGeometry width="50" height="50" relative="1" as="geometry">
            <mxPoint x="277.5" y="200" as="sourcePoint" />
            <mxPoint x="332.5" y="200" as="targetPoint" />
            <Array as="points" />
          </mxGeometry>
        </mxCell>
        <mxCell id="4kl3okm59KW2ScU52pFa-43" value="Авторизоваться" style="ellipse;whiteSpace=wrap;html=1;fillColor=#dae8fc;strokeColor=#6c8ebf;" vertex="1" parent="1">
          <mxGeometry x="187.5" y="200" width="100" height="50" as="geometry" />
        </mxCell>
        <mxCell id="4kl3okm59KW2ScU52pFa-44" value="" style="endArrow=none;html=1;rounded=0;exitX=1;exitY=1;exitDx=0;exitDy=0;exitPerimeter=0;entryX=0;entryY=0.5;entryDx=0;entryDy=0;" edge="1" parent="1" target="4kl3okm59KW2ScU52pFa-43" source="4kl3okm59KW2ScU52pFa-1">
          <mxGeometry width="50" height="50" relative="1" as="geometry">
            <mxPoint x="157.5" y="220" as="sourcePoint" />
            <mxPoint x="342.5" y="260" as="targetPoint" />
            <Array as="points" />
          </mxGeometry>
        </mxCell>
        <mxCell id="4kl3okm59KW2ScU52pFa-45" value="Авторизоваться" style="ellipse;whiteSpace=wrap;html=1;fillColor=#dae8fc;strokeColor=#6c8ebf;" vertex="1" parent="1">
          <mxGeometry x="570" y="-10" width="100" height="50" as="geometry" />
        </mxCell>
        <mxCell id="4kl3okm59KW2ScU52pFa-46" value="" style="endArrow=none;html=1;rounded=0;exitX=0.25;exitY=0.1;exitDx=0;exitDy=0;exitPerimeter=0;entryX=1;entryY=0.727;entryDx=0;entryDy=0;entryPerimeter=0;" edge="1" parent="1" target="4kl3okm59KW2ScU52pFa-45" source="4kl3okm59KW2ScU52pFa-4">
          <mxGeometry width="50" height="50" relative="1" as="geometry">
            <mxPoint x="320" y="250" as="sourcePoint" />
            <mxPoint x="515" y="310" as="targetPoint" />
            <Array as="points" />
          </mxGeometry>
        </mxCell>
        <mxCell id="4kl3okm59KW2ScU52pFa-47" value="extends" style="html=1;verticalAlign=bottom;endArrow=open;dashed=1;endSize=8;curved=0;rounded=0;entryX=1.008;entryY=0.377;entryDx=0;entryDy=0;entryPerimeter=0;exitX=0.28;exitY=0.913;exitDx=0;exitDy=0;exitPerimeter=0;" edge="1" parent="1" source="4kl3okm59KW2ScU52pFa-48" target="4kl3okm59KW2ScU52pFa-41">
          <mxGeometry relative="1" as="geometry">
            <mxPoint x="313.5" y="107.99999999999977" as="sourcePoint" />
            <mxPoint x="387.5" y="310" as="targetPoint" />
          </mxGeometry>
        </mxCell>
        <mxCell id="4kl3okm59KW2ScU52pFa-48" value="Фильтровать задачи" style="ellipse;whiteSpace=wrap;html=1;fillColor=#dae8fc;strokeColor=#6c8ebf;" vertex="1" parent="1">
          <mxGeometry x="210" y="40" width="100" height="50" as="geometry" />
        </mxCell>
        <mxCell id="4kl3okm59KW2ScU52pFa-49" value="extends" style="html=1;verticalAlign=bottom;endArrow=open;dashed=1;endSize=8;curved=0;rounded=0;entryX=0.5;entryY=0;entryDx=0;entryDy=0;exitX=0.425;exitY=0.927;exitDx=0;exitDy=0;exitPerimeter=0;" edge="1" parent="1" source="4kl3okm59KW2ScU52pFa-39" target="4kl3okm59KW2ScU52pFa-11">
          <mxGeometry relative="1" as="geometry">
            <mxPoint x="323.5" y="118" as="sourcePoint" />
            <mxPoint x="298.5" y="149" as="targetPoint" />
          </mxGeometry>
        </mxCell>
        <mxCell id="4kl3okm59KW2ScU52pFa-50" value="Зарабатывать очки" style="ellipse;whiteSpace=wrap;html=1;fillColor=#dae8fc;strokeColor=#6c8ebf;" vertex="1" parent="1">
          <mxGeometry x="97.5" y="60" width="100" height="50" as="geometry" />
        </mxCell>
        <mxCell id="4kl3okm59KW2ScU52pFa-51" value="" style="endArrow=none;html=1;rounded=0;exitX=0.5;exitY=0;exitDx=0;exitDy=0;exitPerimeter=0;entryX=0.442;entryY=1.06;entryDx=0;entryDy=0;entryPerimeter=0;" edge="1" parent="1" target="4kl3okm59KW2ScU52pFa-50" source="4kl3okm59KW2ScU52pFa-1">
          <mxGeometry width="50" height="50" relative="1" as="geometry">
            <mxPoint x="57.5" y="100" as="sourcePoint" />
            <mxPoint x="242.5" y="140" as="targetPoint" />
            <Array as="points" />
          </mxGeometry>
        </mxCell>
        <mxCell id="4kl3okm59KW2ScU52pFa-52" value="Смотреть курс и количество очков" style="ellipse;whiteSpace=wrap;html=1;fillColor=#dae8fc;strokeColor=#6c8ebf;" vertex="1" parent="1">
          <mxGeometry x="87.5" y="-30" width="110" height="60" as="geometry" />
        </mxCell>
        <mxCell id="4kl3okm59KW2ScU52pFa-53" value="extends" style="html=1;verticalAlign=bottom;endArrow=open;dashed=1;endSize=8;curved=0;rounded=0;entryX=0.567;entryY=-0.003;entryDx=0;entryDy=0;exitX=0.425;exitY=0.927;exitDx=0;exitDy=0;exitPerimeter=0;entryPerimeter=0;" edge="1" parent="1" source="4kl3okm59KW2ScU52pFa-52" target="4kl3okm59KW2ScU52pFa-50">
          <mxGeometry relative="1" as="geometry">
            <mxPoint x="431" y="38" as="sourcePoint" />
            <mxPoint x="141" y="60" as="targetPoint" />
          </mxGeometry>
        </mxCell>
        <mxCell id="4kl3okm59KW2ScU52pFa-54" value="Смотреть свою должность" style="ellipse;whiteSpace=wrap;html=1;fillColor=#dae8fc;strokeColor=#6c8ebf;" vertex="1" parent="1">
          <mxGeometry x="-12.5" y="205" width="100" height="50" as="geometry" />
        </mxCell>
        <mxCell id="4kl3okm59KW2ScU52pFa-55" value="" style="endArrow=none;html=1;rounded=0;entryX=0.8;entryY=0.1;entryDx=0;entryDy=0;entryPerimeter=0;" edge="1" parent="1" target="4kl3okm59KW2ScU52pFa-54" source="4kl3okm59KW2ScU52pFa-1">
          <mxGeometry width="50" height="50" relative="1" as="geometry">
            <mxPoint x="22.5" y="285" as="sourcePoint" />
            <mxPoint x="132.5" y="285" as="targetPoint" />
            <Array as="points" />
          </mxGeometry>
        </mxCell>
        <mxCell id="4kl3okm59KW2ScU52pFa-56" value="Видеть кол-во выполненных задач" style="ellipse;whiteSpace=wrap;html=1;fillColor=#dae8fc;strokeColor=#6c8ebf;" vertex="1" parent="1">
          <mxGeometry x="17.5" y="261" width="110" height="59" as="geometry" />
        </mxCell>
        <mxCell id="4kl3okm59KW2ScU52pFa-57" value="" style="endArrow=none;html=1;rounded=0;entryX=0.8;entryY=0.1;entryDx=0;entryDy=0;entryPerimeter=0;" edge="1" parent="1" target="4kl3okm59KW2ScU52pFa-56" source="4kl3okm59KW2ScU52pFa-1">
          <mxGeometry width="50" height="50" relative="1" as="geometry">
            <mxPoint x="147.5" y="235" as="sourcePoint" />
            <mxPoint x="162.5" y="341" as="targetPoint" />
            <Array as="points" />
          </mxGeometry>
        </mxCell>
        <mxCell id="4kl3okm59KW2ScU52pFa-58" value="Менять тему оформления" style="ellipse;whiteSpace=wrap;html=1;fillColor=#dae8fc;strokeColor=#6c8ebf;" vertex="1" parent="1">
          <mxGeometry x="137.5" y="281" width="110" height="59" as="geometry" />
        </mxCell>
        <mxCell id="4kl3okm59KW2ScU52pFa-59" value="" style="endArrow=none;html=1;rounded=0;entryX=0.8;entryY=0.1;entryDx=0;entryDy=0;entryPerimeter=0;" edge="1" parent="1" target="4kl3okm59KW2ScU52pFa-58" source="4kl3okm59KW2ScU52pFa-1">
          <mxGeometry width="50" height="50" relative="1" as="geometry">
            <mxPoint x="244.5" y="220" as="sourcePoint" />
            <mxPoint x="282.5" y="361" as="targetPoint" />
            <Array as="points" />
          </mxGeometry>
        </mxCell>
        <mxCell id="4kl3okm59KW2ScU52pFa-60" value="Менять тему оформления" style="ellipse;whiteSpace=wrap;html=1;fillColor=#dae8fc;strokeColor=#6c8ebf;" vertex="1" parent="1">
          <mxGeometry x="820" y="-10" width="110" height="59" as="geometry" />
        </mxCell>
        <mxCell id="4kl3okm59KW2ScU52pFa-61" value="" style="endArrow=none;html=1;rounded=0;entryX=0.25;entryY=1.011;entryDx=0;entryDy=0;entryPerimeter=0;" edge="1" parent="1" target="4kl3okm59KW2ScU52pFa-60" source="4kl3okm59KW2ScU52pFa-4">
          <mxGeometry width="50" height="50" relative="1" as="geometry">
            <mxPoint x="620" y="134" as="sourcePoint" />
            <mxPoint x="755" y="306" as="targetPoint" />
            <Array as="points" />
          </mxGeometry>
        </mxCell>
        <mxCell id="4kl3okm59KW2ScU52pFa-64" value="" style="endArrow=none;html=1;rounded=0;exitX=0.5;exitY=0;exitDx=0;exitDy=0;" edge="1" parent="1" source="4kl3okm59KW2ScU52pFa-65" target="4kl3okm59KW2ScU52pFa-2">
          <mxGeometry width="50" height="50" relative="1" as="geometry">
            <mxPoint x="690" y="554" as="sourcePoint" />
            <mxPoint x="520" y="331" as="targetPoint" />
          </mxGeometry>
        </mxCell>
        <mxCell id="4kl3okm59KW2ScU52pFa-65" value="Удалить сотрудника" style="ellipse;whiteSpace=wrap;html=1;fillColor=#dae8fc;strokeColor=#6c8ebf;" vertex="1" parent="1">
          <mxGeometry x="390" y="290" width="100" height="50" as="geometry" />
        </mxCell>
        <mxCell id="4kl3okm59KW2ScU52pFa-66" value="" style="endArrow=block;dashed=1;endFill=0;endSize=12;html=1;rounded=0;exitX=0.608;exitY=1.063;exitDx=0;exitDy=0;exitPerimeter=0;entryX=0.5;entryY=0;entryDx=0;entryDy=0;" edge="1" parent="1" source="4kl3okm59KW2ScU52pFa-35" target="4kl3okm59KW2ScU52pFa-70">
          <mxGeometry width="160" relative="1" as="geometry">
            <mxPoint x="660" y="270" as="sourcePoint" />
            <mxPoint x="910" y="180" as="targetPoint" />
          </mxGeometry>
        </mxCell>
        <mxCell id="4kl3okm59KW2ScU52pFa-69" value="include" style="text;html=1;align=center;verticalAlign=middle;whiteSpace=wrap;rounded=0;" vertex="1" parent="1">
          <mxGeometry x="845" y="140" width="60" height="30" as="geometry" />
        </mxCell>
        <mxCell id="4kl3okm59KW2ScU52pFa-70" value="Назначить время сдачи" style="ellipse;whiteSpace=wrap;html=1;fillColor=#dae8fc;strokeColor=#6c8ebf;" vertex="1" parent="1">
          <mxGeometry x="860" y="180" width="100" height="50" as="geometry" />
        </mxCell>
        <mxCell id="4kl3okm59KW2ScU52pFa-73" value="" style="endArrow=block;dashed=1;endFill=0;endSize=12;html=1;rounded=0;exitX=1;exitY=0;exitDx=0;exitDy=0;entryX=-0.017;entryY=0.397;entryDx=0;entryDy=0;entryPerimeter=0;" edge="1" parent="1" target="4kl3okm59KW2ScU52pFa-75" source="4kl3okm59KW2ScU52pFa-35">
          <mxGeometry width="160" relative="1" as="geometry">
            <mxPoint x="998" y="12" as="sourcePoint" />
            <mxPoint x="990" y="70" as="targetPoint" />
          </mxGeometry>
        </mxCell>
        <mxCell id="4kl3okm59KW2ScU52pFa-74" value="include" style="text;html=1;align=center;verticalAlign=middle;whiteSpace=wrap;rounded=0;" vertex="1" parent="1">
          <mxGeometry x="910" y="60" width="60" height="30" as="geometry" />
        </mxCell>
        <mxCell id="4kl3okm59KW2ScU52pFa-75" value="Добавить описание" style="ellipse;whiteSpace=wrap;html=1;fillColor=#dae8fc;strokeColor=#6c8ebf;" vertex="1" parent="1">
          <mxGeometry x="960" y="70" width="100" height="50" as="geometry" />
        </mxCell>
        <mxCell id="4kl3okm59KW2ScU52pFa-76" value="" style="endArrow=block;dashed=1;endFill=0;endSize=12;html=1;rounded=0;exitX=1;exitY=0.5;exitDx=0;exitDy=0;entryX=0.5;entryY=0;entryDx=0;entryDy=0;" edge="1" parent="1" target="4kl3okm59KW2ScU52pFa-78" source="4kl3okm59KW2ScU52pFa-35">
          <mxGeometry width="160" relative="1" as="geometry">
            <mxPoint x="1048" y="142" as="sourcePoint" />
            <mxPoint x="1040" y="200" as="targetPoint" />
          </mxGeometry>
        </mxCell>
        <mxCell id="4kl3okm59KW2ScU52pFa-77" value="include" style="text;html=1;align=center;verticalAlign=middle;whiteSpace=wrap;rounded=0;" vertex="1" parent="1">
          <mxGeometry x="925" y="110" width="60" height="30" as="geometry" />
        </mxCell>
        <mxCell id="4kl3okm59KW2ScU52pFa-78" value="Дать название" style="ellipse;whiteSpace=wrap;html=1;fillColor=#dae8fc;strokeColor=#6c8ebf;" vertex="1" parent="1">
          <mxGeometry x="950" y="140" width="100" height="50" as="geometry" />
        </mxCell>
        <mxCell id="4kl3okm59KW2ScU52pFa-81" value="Смотреть список задач" style="ellipse;whiteSpace=wrap;html=1;fillColor=#dae8fc;strokeColor=#6c8ebf;" vertex="1" parent="1">
          <mxGeometry x="550" y="80" width="100" height="50" as="geometry" />
        </mxCell>
        <mxCell id="4kl3okm59KW2ScU52pFa-82" value="" style="endArrow=none;html=1;rounded=0;exitX=0;exitY=0.3333333333333333;exitDx=0;exitDy=0;exitPerimeter=0;entryX=1;entryY=0.5;entryDx=0;entryDy=0;" edge="1" parent="1" target="4kl3okm59KW2ScU52pFa-81" source="4kl3okm59KW2ScU52pFa-4">
          <mxGeometry width="50" height="50" relative="1" as="geometry">
            <mxPoint x="325" y="130" as="sourcePoint" />
            <mxPoint x="510" y="170" as="targetPoint" />
            <Array as="points" />
          </mxGeometry>
        </mxCell>
        <mxCell id="4kl3okm59KW2ScU52pFa-83" value="extends" style="html=1;verticalAlign=bottom;endArrow=open;dashed=1;endSize=8;curved=0;rounded=0;entryX=0;entryY=0.5;entryDx=0;entryDy=0;exitX=0.36;exitY=0.96;exitDx=0;exitDy=0;exitPerimeter=0;" edge="1" parent="1" source="4kl3okm59KW2ScU52pFa-84" target="4kl3okm59KW2ScU52pFa-81">
          <mxGeometry relative="1" as="geometry">
            <mxPoint x="515" y="70" as="sourcePoint" />
            <mxPoint x="565" y="280" as="targetPoint" />
          </mxGeometry>
        </mxCell>
        <mxCell id="4kl3okm59KW2ScU52pFa-84" value="Фильтровать задачи" style="ellipse;whiteSpace=wrap;html=1;fillColor=#dae8fc;strokeColor=#6c8ebf;" vertex="1" parent="1">
          <mxGeometry x="455" y="30" width="100" height="50" as="geometry" />
        </mxCell>
      </root>
    </mxGraphModel>
  </diagram>
</mxfile>
